<mxfile host="Electron" modified="2023-08-07T17:17:59.791Z" agent="Mozilla/5.0 (Windows NT 10.0; Win64; x64) AppleWebKit/537.36 (KHTML, like Gecko) draw.io/21.6.5 Chrome/114.0.5735.243 Electron/25.3.1 Safari/537.36" etag="12_In3FQmlQ-TrRasetj" version="21.6.5" type="device">
  <diagram id="prtHgNgQTEPvFCAcTncT" name="Page-1">
    <mxGraphModel dx="1184" dy="687" grid="1" gridSize="10" guides="1" tooltips="1" connect="1" arrows="1" fold="1" page="1" pageScale="1" pageWidth="950" pageHeight="360" math="0" shadow="0">
      <root>
        <mxCell id="0" />
        <mxCell id="1" parent="0" />
        <mxCell id="dNxyNK7c78bLwvsdeMH5-19" value="&lt;font style=&quot;font-size: 12px;&quot;&gt;Experiment&lt;/font&gt;" style="swimlane;html=1;childLayout=stackLayout;resizeParent=1;resizeParentMax=0;horizontal=0;startSize=20;horizontalStack=0;" parent="1" vertex="1">
          <mxGeometry width="950" height="360" as="geometry" />
        </mxCell>
        <mxCell id="dNxyNK7c78bLwvsdeMH5-20" value="&lt;font style=&quot;font-size: 12px;&quot;&gt;User&lt;/font&gt;" style="swimlane;html=1;startSize=20;horizontal=0;" parent="dNxyNK7c78bLwvsdeMH5-19" vertex="1">
          <mxGeometry x="20" width="930" height="120" as="geometry" />
        </mxCell>
        <mxCell id="WSmSX_3TVf46EgoOAQ_6-16" style="edgeStyle=orthogonalEdgeStyle;rounded=0;orthogonalLoop=1;jettySize=auto;html=1;entryX=0;entryY=0.5;entryDx=0;entryDy=0;" parent="dNxyNK7c78bLwvsdeMH5-20" edge="1">
          <mxGeometry relative="1" as="geometry">
            <mxPoint x="820" y="50" as="targetPoint" />
          </mxGeometry>
        </mxCell>
        <mxCell id="_Lk6X1f1YLJ5T_c_KmI_-11" style="edgeStyle=orthogonalEdgeStyle;rounded=0;orthogonalLoop=1;jettySize=auto;html=1;entryX=0;entryY=0.5;entryDx=0;entryDy=0;" parent="dNxyNK7c78bLwvsdeMH5-19" source="_Lk6X1f1YLJ5T_c_KmI_-3" target="_Lk6X1f1YLJ5T_c_KmI_-10" edge="1">
          <mxGeometry relative="1" as="geometry" />
        </mxCell>
        <mxCell id="_Lk6X1f1YLJ5T_c_KmI_-17" value="No group &lt;br&gt;allocation &lt;br&gt;available" style="edgeLabel;html=1;align=center;verticalAlign=middle;resizable=0;points=[];" parent="_Lk6X1f1YLJ5T_c_KmI_-11" vertex="1" connectable="0">
          <mxGeometry x="-0.6391" y="3" relative="1" as="geometry">
            <mxPoint x="-38" y="49" as="offset" />
          </mxGeometry>
        </mxCell>
        <mxCell id="dNxyNK7c78bLwvsdeMH5-21" value="&lt;font style=&quot;font-size: 12px;&quot;&gt;Participant Data&lt;/font&gt;" style="swimlane;html=1;startSize=20;horizontal=0;" parent="dNxyNK7c78bLwvsdeMH5-19" vertex="1">
          <mxGeometry x="20" y="120" width="930" height="120" as="geometry" />
        </mxCell>
        <mxCell id="WSmSX_3TVf46EgoOAQ_6-21" style="edgeStyle=orthogonalEdgeStyle;rounded=0;orthogonalLoop=1;jettySize=auto;html=1;entryX=0;entryY=0.5;entryDx=0;entryDy=0;" parent="dNxyNK7c78bLwvsdeMH5-21" edge="1">
          <mxGeometry relative="1" as="geometry">
            <mxPoint x="900" y="50" as="targetPoint" />
          </mxGeometry>
        </mxCell>
        <mxCell id="_Lk6X1f1YLJ5T_c_KmI_-3" value="" style="rhombus;whiteSpace=wrap;html=1;fontFamily=Helvetica;fontSize=12;fontColor=#000000;align=center;" parent="dNxyNK7c78bLwvsdeMH5-21" vertex="1">
          <mxGeometry x="355" y="40" width="40" height="40" as="geometry" />
        </mxCell>
        <mxCell id="_Lk6X1f1YLJ5T_c_KmI_-9" style="edgeStyle=orthogonalEdgeStyle;rounded=0;orthogonalLoop=1;jettySize=auto;html=1;entryX=0;entryY=0.5;entryDx=0;entryDy=0;" parent="dNxyNK7c78bLwvsdeMH5-21" source="_Lk6X1f1YLJ5T_c_KmI_-1" target="_Lk6X1f1YLJ5T_c_KmI_-3" edge="1">
          <mxGeometry relative="1" as="geometry" />
        </mxCell>
        <mxCell id="_Lk6X1f1YLJ5T_c_KmI_-1" value="Read group allocation" style="rounded=0;whiteSpace=wrap;html=1;fontFamily=Helvetica;fontSize=12;fontColor=#000000;align=center;" parent="dNxyNK7c78bLwvsdeMH5-21" vertex="1">
          <mxGeometry x="230" y="30" width="80" height="60" as="geometry" />
        </mxCell>
        <mxCell id="_Lk6X1f1YLJ5T_c_KmI_-5" value="Save new group allocation" style="rounded=0;whiteSpace=wrap;html=1;fontFamily=Helvetica;fontSize=12;fontColor=#000000;align=center;" parent="dNxyNK7c78bLwvsdeMH5-21" vertex="1">
          <mxGeometry x="610" y="40" width="80" height="60" as="geometry" />
        </mxCell>
        <mxCell id="_Lk6X1f1YLJ5T_c_KmI_-15" style="edgeStyle=orthogonalEdgeStyle;rounded=0;orthogonalLoop=1;jettySize=auto;html=1;entryX=0.5;entryY=0;entryDx=0;entryDy=0;" parent="dNxyNK7c78bLwvsdeMH5-21" source="_Lk6X1f1YLJ5T_c_KmI_-3" target="go5s9FM2Y8fomXYLC9Om-2" edge="1">
          <mxGeometry relative="1" as="geometry">
            <Array as="points">
              <mxPoint x="420" y="60" />
              <mxPoint x="420" y="20" />
              <mxPoint x="790" y="20" />
            </Array>
          </mxGeometry>
        </mxCell>
        <mxCell id="_Lk6X1f1YLJ5T_c_KmI_-16" value="manual group &lt;br&gt;allocation available" style="edgeLabel;html=1;align=center;verticalAlign=middle;resizable=0;points=[];" parent="_Lk6X1f1YLJ5T_c_KmI_-15" vertex="1" connectable="0">
          <mxGeometry x="-0.8224" y="-2" relative="1" as="geometry">
            <mxPoint x="56" y="2" as="offset" />
          </mxGeometry>
        </mxCell>
        <mxCell id="go5s9FM2Y8fomXYLC9Om-2" value="" style="rhombus;whiteSpace=wrap;html=1;fontFamily=Helvetica;fontSize=12;fontColor=#000000;align=center;" parent="dNxyNK7c78bLwvsdeMH5-21" vertex="1">
          <mxGeometry x="770" y="40" width="40" height="40" as="geometry" />
        </mxCell>
        <mxCell id="_Lk6X1f1YLJ5T_c_KmI_-13" style="edgeStyle=orthogonalEdgeStyle;rounded=0;orthogonalLoop=1;jettySize=auto;html=1;" parent="dNxyNK7c78bLwvsdeMH5-21" source="_Lk6X1f1YLJ5T_c_KmI_-5" target="go5s9FM2Y8fomXYLC9Om-2" edge="1">
          <mxGeometry relative="1" as="geometry" />
        </mxCell>
        <mxCell id="dNxyNK7c78bLwvsdeMH5-22" value="&lt;font style=&quot;font-size: 12px;&quot;&gt;Experiment Data&lt;/font&gt;" style="swimlane;html=1;startSize=20;horizontal=0;" parent="dNxyNK7c78bLwvsdeMH5-19" vertex="1">
          <mxGeometry x="20" y="240" width="930" height="120" as="geometry" />
        </mxCell>
        <mxCell id="_Lk6X1f1YLJ5T_c_KmI_-10" value="Read group allocation" style="rounded=0;whiteSpace=wrap;html=1;fontFamily=Helvetica;fontSize=12;fontColor=#000000;align=center;" parent="dNxyNK7c78bLwvsdeMH5-22" vertex="1">
          <mxGeometry x="395" y="30" width="80" height="60" as="geometry" />
        </mxCell>
        <mxCell id="UHkPJEsiULdOGkKA9m4p-3" style="edgeStyle=orthogonalEdgeStyle;rounded=0;orthogonalLoop=1;jettySize=auto;html=1;entryX=0;entryY=0.5;entryDx=0;entryDy=0;" parent="dNxyNK7c78bLwvsdeMH5-22" source="dNxyNK7c78bLwvsdeMH5-23" target="UHkPJEsiULdOGkKA9m4p-1" edge="1">
          <mxGeometry relative="1" as="geometry" />
        </mxCell>
        <mxCell id="dNxyNK7c78bLwvsdeMH5-23" value="" style="ellipse;whiteSpace=wrap;html=1;labelBorderColor=default;labelBackgroundColor=default;align=center;" parent="dNxyNK7c78bLwvsdeMH5-22" vertex="1">
          <mxGeometry x="40" y="40" width="40" height="40" as="geometry" />
        </mxCell>
        <mxCell id="koGJSWRSPWpVpO0U7He_-2" value="" style="ellipse;whiteSpace=wrap;html=1;labelBorderColor=default;labelBackgroundColor=default;align=center;" parent="dNxyNK7c78bLwvsdeMH5-22" vertex="1">
          <mxGeometry x="870" y="40" width="40" height="40" as="geometry" />
        </mxCell>
        <mxCell id="UHkPJEsiULdOGkKA9m4p-1" value="Get current participant" style="rounded=0;whiteSpace=wrap;html=1;fontFamily=Helvetica;fontSize=12;fontColor=#000000;align=center;" parent="dNxyNK7c78bLwvsdeMH5-22" vertex="1">
          <mxGeometry x="110" y="30" width="80" height="60" as="geometry" />
        </mxCell>
        <mxCell id="WSmSX_3TVf46EgoOAQ_6-12" style="edgeStyle=orthogonalEdgeStyle;rounded=0;orthogonalLoop=1;jettySize=auto;html=1;entryX=0.5;entryY=0;entryDx=0;entryDy=0;" parent="dNxyNK7c78bLwvsdeMH5-19" edge="1">
          <mxGeometry relative="1" as="geometry">
            <mxPoint x="860" y="70" as="sourcePoint" />
          </mxGeometry>
        </mxCell>
        <mxCell id="WSmSX_3TVf46EgoOAQ_6-13" value="No participant &lt;br&gt;chosen" style="edgeLabel;html=1;align=center;verticalAlign=middle;resizable=0;points=[];" parent="WSmSX_3TVf46EgoOAQ_6-12" vertex="1" connectable="0">
          <mxGeometry x="747" y="2" relative="1" as="geometry">
            <mxPoint x="38" y="-25" as="offset" />
          </mxGeometry>
        </mxCell>
        <mxCell id="7uPW_eYRZqSrtQjB_KPH-4" value="No Participant &lt;br&gt;Chosen" style="edgeLabel;html=1;align=center;verticalAlign=middle;resizable=0;points=[];" parent="WSmSX_3TVf46EgoOAQ_6-12" vertex="1" connectable="0">
          <mxGeometry x="-0.3846" y="-2" relative="1" as="geometry">
            <mxPoint as="offset" />
          </mxGeometry>
        </mxCell>
        <mxCell id="WSmSX_3TVf46EgoOAQ_6-15" style="edgeStyle=orthogonalEdgeStyle;rounded=0;orthogonalLoop=1;jettySize=auto;html=1;entryX=0;entryY=0.5;entryDx=0;entryDy=0;" parent="dNxyNK7c78bLwvsdeMH5-19" edge="1">
          <mxGeometry relative="1" as="geometry">
            <mxPoint x="740" y="50" as="targetPoint" />
          </mxGeometry>
        </mxCell>
        <mxCell id="WSmSX_3TVf46EgoOAQ_6-22" style="edgeStyle=orthogonalEdgeStyle;rounded=0;orthogonalLoop=1;jettySize=auto;html=1;entryX=0.5;entryY=0;entryDx=0;entryDy=0;" parent="dNxyNK7c78bLwvsdeMH5-19" edge="1">
          <mxGeometry relative="1" as="geometry">
            <mxPoint x="880" y="50" as="sourcePoint" />
          </mxGeometry>
        </mxCell>
        <mxCell id="7uPW_eYRZqSrtQjB_KPH-5" value="Participant &lt;br&gt;Chosen" style="edgeLabel;html=1;align=center;verticalAlign=middle;resizable=0;points=[];" parent="WSmSX_3TVf46EgoOAQ_6-22" vertex="1" connectable="0">
          <mxGeometry x="-0.7132" y="3" relative="1" as="geometry">
            <mxPoint x="38" y="23" as="offset" />
          </mxGeometry>
        </mxCell>
        <mxCell id="UHkPJEsiULdOGkKA9m4p-4" style="edgeStyle=orthogonalEdgeStyle;rounded=0;orthogonalLoop=1;jettySize=auto;html=1;entryX=0;entryY=0.5;entryDx=0;entryDy=0;" parent="dNxyNK7c78bLwvsdeMH5-19" source="UHkPJEsiULdOGkKA9m4p-1" target="_Lk6X1f1YLJ5T_c_KmI_-1" edge="1">
          <mxGeometry relative="1" as="geometry" />
        </mxCell>
        <mxCell id="m9pyD-C0a4OcAHbN6rgS-1" style="edgeStyle=orthogonalEdgeStyle;rounded=0;orthogonalLoop=1;jettySize=auto;html=1;entryX=0;entryY=0.5;entryDx=0;entryDy=0;" edge="1" parent="dNxyNK7c78bLwvsdeMH5-19" source="_Lk6X1f1YLJ5T_c_KmI_-10" target="_Lk6X1f1YLJ5T_c_KmI_-5">
          <mxGeometry relative="1" as="geometry">
            <Array as="points">
              <mxPoint x="580" y="300" />
              <mxPoint x="580" y="190" />
            </Array>
          </mxGeometry>
        </mxCell>
        <mxCell id="koGJSWRSPWpVpO0U7He_-4" style="edgeStyle=orthogonalEdgeStyle;rounded=0;orthogonalLoop=1;jettySize=auto;html=1;entryX=0;entryY=0.5;entryDx=0;entryDy=0;" parent="dNxyNK7c78bLwvsdeMH5-19" source="go5s9FM2Y8fomXYLC9Om-2" target="koGJSWRSPWpVpO0U7He_-2" edge="1">
          <mxGeometry relative="1" as="geometry" />
        </mxCell>
        <mxCell id="WcqlEebcO3FFFfgGgb2w-16" value="" style="edgeStyle=orthogonalEdgeStyle;rounded=0;orthogonalLoop=1;jettySize=auto;html=1;" parent="1" edge="1">
          <mxGeometry relative="1" as="geometry">
            <mxPoint x="1020" y="170" as="targetPoint" />
          </mxGeometry>
        </mxCell>
      </root>
    </mxGraphModel>
  </diagram>
</mxfile>
